<svg id="visual" viewBox="0 0 900 450" width="900" height="450" xmlns="http://www.w3.org/2000/svg" xmlns:xlink="http://www.w3.org/1999/xlink" version="1.1"><path d="M0 236L37.5 226.2C75 216.3 150 196.7 225 188C300 179.3 375 181.7 450 197.5C525 213.3 600 242.7 675 253.2C750 263.7 825 255.3 862.5 251.2L900 247L900 451L862.5 451C825 451 750 451 675 451C600 451 525 451 450 451C375 451 300 451 225 451C150 451 75 451 37.5 451L0 451Z" fill="#FFF" stroke-linecap="round" stroke-linejoin="miter"></path></svg>